<svg width="141" height="29" viewBox="0 0 141 29" fill="none" xmlns="http://www.w3.org/2000/svg">
<path d="M10.532 23.24C9.252 23.24 8.06 23.032 6.956 22.616C5.868 22.184 4.916 21.584 4.1 20.816C3.3 20.032 2.676 19.112 2.228 18.056C1.78 17 1.556 15.848 1.556 14.6C1.556 13.352 1.78 12.2 2.228 11.144C2.676 10.088 3.308 9.176 4.124 8.408C4.94 7.624 5.892 7.024 6.98 6.608C8.068 6.176 9.26 5.96 10.556 5.96C11.932 5.96 13.188 6.2 14.324 6.68C15.46 7.144 16.42 7.84 17.204 8.768L15.188 10.664C14.58 10.008 13.9 9.52 13.148 9.2C12.396 8.864 11.58 8.696 10.7 8.696C9.82 8.696 9.012 8.84 8.276 9.128C7.556 9.416 6.924 9.824 6.38 10.352C5.852 10.88 5.436 11.504 5.132 12.224C4.844 12.944 4.7 13.736 4.7 14.6C4.7 15.464 4.844 16.256 5.132 16.976C5.436 17.696 5.852 18.32 6.38 18.848C6.924 19.376 7.556 19.784 8.276 20.072C9.012 20.36 9.82 20.504 10.7 20.504C11.58 20.504 12.396 20.344 13.148 20.024C13.9 19.688 14.58 19.184 15.188 18.512L17.204 20.432C16.42 21.344 15.46 22.04 14.324 22.52C13.188 23 11.924 23.24 10.532 23.24ZM27.6843 23V20.408L27.5163 19.856V15.32C27.5163 14.44 27.2523 13.76 26.7243 13.28C26.1963 12.784 25.3963 12.536 24.3243 12.536C23.6043 12.536 22.8923 12.648 22.1883 12.872C21.5003 13.096 20.9163 13.408 20.4363 13.808L19.2603 11.624C19.9483 11.096 20.7643 10.704 21.7083 10.448C22.6683 10.176 23.6603 10.04 24.6843 10.04C26.5403 10.04 27.9723 10.488 28.9803 11.384C30.0043 12.264 30.5163 13.632 30.5163 15.488V23H27.6843ZM23.6523 23.168C22.6923 23.168 21.8523 23.008 21.1323 22.688C20.4123 22.352 19.8523 21.896 19.4523 21.32C19.0683 20.728 18.8763 20.064 18.8763 19.328C18.8763 18.608 19.0443 17.96 19.3803 17.384C19.7323 16.808 20.3003 16.352 21.0843 16.016C21.8683 15.68 22.9083 15.512 24.2043 15.512H27.9243V17.504H24.4203C23.3963 17.504 22.7083 17.672 22.3563 18.008C22.0043 18.328 21.8283 18.728 21.8283 19.208C21.8283 19.752 22.0443 20.184 22.4763 20.504C22.9083 20.824 23.5083 20.984 24.2763 20.984C25.0123 20.984 25.6683 20.816 26.2443 20.48C26.8363 20.144 27.2603 19.648 27.5163 18.992L28.0203 20.792C27.7323 21.544 27.2123 22.128 26.4603 22.544C25.7243 22.96 24.7883 23.168 23.6523 23.168ZM34.3664 23V10.184H37.3664V23H34.3664ZM35.8784 8.072C35.3184 8.072 34.8544 7.896 34.4864 7.544C34.1344 7.192 33.9584 6.768 33.9584 6.272C33.9584 5.76 34.1344 5.336 34.4864 5C34.8544 4.648 35.3184 4.472 35.8784 4.472C36.4384 4.472 36.8944 4.64 37.2464 4.976C37.6144 5.296 37.7984 5.704 37.7984 6.2C37.7984 6.728 37.6224 7.176 37.2704 7.544C36.9184 7.896 36.4544 8.072 35.8784 8.072ZM39.5519 23L45.1919 15.656L45.1439 17.264L39.7679 10.184H43.1039L46.8719 15.224H45.5999L49.3919 10.184H52.6319L47.2079 17.264L47.2319 15.656L52.8479 23H49.4639L45.5039 17.648L46.7519 17.816L42.8639 23H39.5519ZM55.0618 23V10.184H58.0618V23H55.0618ZM56.5738 8.072C56.0138 8.072 55.5498 7.896 55.1818 7.544C54.8298 7.192 54.6538 6.768 54.6538 6.272C54.6538 5.76 54.8298 5.336 55.1818 5C55.5498 4.648 56.0138 4.472 56.5738 4.472C57.1338 4.472 57.5898 4.64 57.9418 4.976C58.3098 5.296 58.4938 5.704 58.4938 6.2C58.4938 6.728 58.3178 7.176 57.9658 7.544C57.6138 7.896 57.1498 8.072 56.5738 8.072ZM69.2713 10.04C70.2953 10.04 71.2073 10.24 72.0073 10.64C72.8233 11.04 73.4633 11.656 73.9273 12.488C74.3913 13.304 74.6233 14.36 74.6233 15.656V23H71.6233V16.04C71.6233 14.904 71.3513 14.056 70.8073 13.496C70.2793 12.936 69.5353 12.656 68.5753 12.656C67.8713 12.656 67.2473 12.8 66.7033 13.088C66.1593 13.376 65.7353 13.808 65.4313 14.384C65.1433 14.944 64.9993 15.656 64.9993 16.52V23H61.9993V10.184H64.8553V13.64L64.3513 12.584C64.7993 11.768 65.4473 11.144 66.2953 10.712C67.1593 10.264 68.1513 10.04 69.2713 10.04ZM85.7009 10.04C86.7249 10.04 87.6369 10.24 88.4369 10.64C89.2529 11.04 89.8929 11.656 90.3569 12.488C90.8209 13.304 91.0529 14.36 91.0529 15.656V23H88.0529V16.04C88.0529 14.904 87.7809 14.056 87.2369 13.496C86.7089 12.936 85.9649 12.656 85.0049 12.656C84.3009 12.656 83.6769 12.8 83.1329 13.088C82.5889 13.376 82.1649 13.808 81.8609 14.384C81.5729 14.944 81.4289 15.656 81.4289 16.52V23H78.4289V5.192H81.4289V13.64L80.7809 12.584C81.2289 11.768 81.8769 11.144 82.7249 10.712C83.5889 10.264 84.5809 10.04 85.7009 10.04ZM102.755 23V20.408L102.587 19.856V15.32C102.587 14.44 102.323 13.76 101.795 13.28C101.267 12.784 100.467 12.536 99.3946 12.536C98.6746 12.536 97.9626 12.648 97.2586 12.872C96.5706 13.096 95.9866 13.408 95.5066 13.808L94.3306 11.624C95.0186 11.096 95.8346 10.704 96.7786 10.448C97.7386 10.176 98.7306 10.04 99.7546 10.04C101.611 10.04 103.043 10.488 104.051 11.384C105.075 12.264 105.587 13.632 105.587 15.488V23H102.755ZM98.7226 23.168C97.7626 23.168 96.9226 23.008 96.2026 22.688C95.4826 22.352 94.9226 21.896 94.5226 21.32C94.1386 20.728 93.9466 20.064 93.9466 19.328C93.9466 18.608 94.1146 17.96 94.4506 17.384C94.8026 16.808 95.3706 16.352 96.1546 16.016C96.9386 15.68 97.9786 15.512 99.2746 15.512H102.995V17.504H99.4906C98.4666 17.504 97.7786 17.672 97.4266 18.008C97.0746 18.328 96.8986 18.728 96.8986 19.208C96.8986 19.752 97.1146 20.184 97.5466 20.504C97.9786 20.824 98.5786 20.984 99.3466 20.984C100.083 20.984 100.739 20.816 101.315 20.48C101.907 20.144 102.331 19.648 102.587 18.992L103.091 20.792C102.803 21.544 102.283 22.128 101.531 22.544C100.795 22.96 99.8586 23.168 98.7226 23.168Z" fill="white"/>
<path d="M128 11.3709L123.267 9.49778L134.986 4.85363L139.027 6.45431C139.23 6.53472 139.422 6.64311 139.595 6.77631L128 11.3709ZM140.445 8.10918C140.482 8.2734 140.5 8.44105 140.5 8.6092V20.4456C140.5 20.9098 140.36 21.3633 140.097 21.7477C139.834 22.1321 139.462 22.4296 139.027 22.602L130.031 26.1672C129.625 26.3282 129.206 26.4381 128.781 26.4985V12.7301L140.445 8.10918ZM127.219 26.5C126.79 26.439 126.371 26.3278 125.969 26.1687L116.973 22.6036C116.538 22.4311 116.165 22.1333 115.902 21.7486C115.64 21.3639 115.5 20.91 115.5 20.4456V8.6092C115.5 8.43891 115.519 8.27017 115.555 8.10763L127.219 12.7301V26.5ZM116.405 6.77786L121.164 8.66493L132.883 4.02078L130.031 2.88761C128.727 2.3708 127.273 2.3708 125.969 2.88761L116.973 6.45276C116.77 6.53319 116.578 6.64158 116.405 6.77476V6.77786Z" fill="url(#paint0_linear_186_8)"/>
<defs>
<linearGradient id="paint0_linear_186_8" x1="128" y1="2.5" x2="127.744" y2="33.1383" gradientUnits="userSpaceOnUse">
<stop stop-color="#F5F6FA"/>
<stop offset="1" stop-color="#F5F6FA" stop-opacity="0"/>
</linearGradient>
</defs>
</svg>
